PathFileType	4	(X/Y/Z)	8_coords_data.trc
DataRate	CameraRate	NumFrames	NumMarkers	Units	OrigDataRate	OrigDataStartFrame	OrigNumFrames
30.0	30.0	6	21	m	30.0	11	53
Frame#	Time	THUMB_TIP	THUMB_IP	THUMB_MCP	THUMB_CMC	INDEX_TIP	INDEX_DIP	INDEX_PIP	INDEX_MCP	MIDDLE_TIP	MIDDLE_DIP	MIDDLE_PIP	MIDDLE_MCP	RING_TIP	RING_DIP	RING_PIP	RING_MCP	PINKY_TIP	PINKY_DIP	PINKY_PIP	PINKY_MCP	WRIST
X1	Y1	Z1	X2	Y2	Z2	X3	Y3	Z3	X4	Y4	Z4	X5	Y5	Z5	X6	Y6	Z6	X7	Y7	Z7	X8	Y8	Z8	X9	Y9	Z9	X10	Y10	Z10	X11	Y11	Z11	X12	Y12	Z12	X13	Y13	Z13	X14	Y14	Z14	X15	Y15	Z15	X16	Y16	Z16	X17	Y17	Z17	X18	Y18	Z18	X19	Y19	Z19	X20	Y20	Z20	X21	Y21	Z21
10	0.3333333333333333	-0.041197399139404296	-0.1029469985961914	0.9918270263671874	-0.03924380111694336	-0.0759905014038086	0.9900819702148438	-0.04286940002441406	-0.04941019821166992	0.9968270263671875	-0.04581290054321289	-0.016853399276733398	1.0048099975585938	-0.04381639862060547	-0.03148399925231934	0.9796389770507813	-0.027686500549316408	-0.031531600952148436	0.969426025390625	-0.025364500045776367	-0.037535301208496095	0.94860498046875	-0.06254840087890624	-0.03943429946899414	0.955530029296875	-0.03732049942016601	-0.017351200103759765	0.9805830078125	-0.026460599899291993	-0.01548770046234131	0.9692059936523437	-0.02360849952697754	-0.0186382999420166	0.9439210205078125	-0.06398210144042969	-0.018987600326538085	0.9490789794921874	-0.04172890090942383	-0.002014519929885864	0.9827949829101562	-0.027224000930786134	0.0009579809904098511	0.9699979858398438	-0.023663900375366212	0.001230630040168762	0.9464180297851562	-0.06074359893798828	0.0007596300244331361	0.94989501953125	-0.04218450164794922	0.01149470043182373	0.9825599975585938	-0.0283528995513916	0.014546600341796875	0.9712769775390625	-0.029019599914550782	0.017113399505615235	0.9547130126953125	-0.05736029815673828	0.019151500701904297	0.9539310302734375	-0.06755979919433594	0.008915040016174316	1.0215499877929688
11	0.36666666666666664	-0.040974998474121095	-0.10302300262451172	0.9918140258789062	-0.03902629852294922	-0.0760906982421875	0.99002197265625	-0.04262030029296875	-0.04948020172119141	0.9967000122070313	-0.0455994987487793	-0.016925100326538087	1.00477001953125	-0.043620498657226565	-0.03163570022583008	0.979302978515625	-0.027418500900268556	-0.03166169929504394	0.969177978515625	-0.025281999588012697	-0.03769549942016601	0.9483109741210938	-0.062309200286865235	-0.03961370086669922	0.9554400024414063	-0.037121898651123045	-0.017472200393676758	0.9806950073242188	-0.026228200912475585	-0.015606900215148926	0.969031005859375	-0.02350629997253418	-0.018744699478149413	0.9437360229492188	-0.0638400993347168	-0.019147100448608397	0.9490339965820312	-0.04160559844970703	-0.00217546010017395	0.9825700073242187	-0.027084400177001953	0.000819848001003265	0.969885986328125	-0.023564599990844728	0.001091670036315918	0.9461539916992188	-0.06064860153198242	0.000593230009078979	0.9499210205078125	-0.04200770187377929	0.011337200164794921	0.9825150146484375	-0.02820870018005371	0.01440250015258789	0.9712020263671876	-0.028894899368286132	0.01700399971008301	0.954614013671875	-0.057201499938964846	0.01899220085144043	0.9538709716796875	-0.06735530090332031	0.008806329727172851	1.021510009765625
12	0.4	-0.041011199951171876	-0.10326499938964843	0.9919990234375	-0.03901200103759766	-0.07633989715576171	0.9901110229492187	-0.04247079849243164	-0.04968989944458008	0.9967930297851563	-0.045435100555419924	-0.017173200607299804	1.0046300048828125	-0.04357289886474609	-0.031907199859619144	0.9791229858398437	-0.027317699432373048	-0.031967199325561524	0.9691309814453125	-0.025241899490356445	-0.038037998199462894	0.9482680053710938	-0.06227610015869141	-0.039837398529052735	0.9552760009765625	-0.03698789978027344	-0.017828699111938476	0.9805679931640625	-0.026122800827026366	-0.015981499671936034	0.9689459838867187	-0.023443899154663085	-0.019103900909423828	0.9437039794921875	-0.06380110168457032	-0.0193981990814209	0.9490189819335938	-0.04132770156860351	-0.002464879989624023	0.9827369995117188	-0.026835399627685545	0.000422980993986129	0.969655029296875	-0.02340679931640625	0.000733425974845886	0.9461929931640625	-0.06050749969482422	0.000326483994722366	0.9498280029296875	-0.04184510040283203	0.01106719970703125	0.98239501953125	-0.0280492000579834	0.014081000328063965	0.9711110229492188	-0.028684499740600587	0.016672000885009766	0.95447998046875	-0.05698979949951172	0.018702499389648436	0.953781982421875	-0.06714479827880859	0.00862007999420166	1.0214000244140624
13	0.43333333333333335	-0.04067940139770508	-0.10341899871826171	0.9918099975585938	-0.038707801818847656	-0.07645960235595703	0.9899630126953125	-0.04230870056152344	-0.049855098724365235	0.9966430053710937	-0.04524240112304687	-0.017327400207519533	1.004469970703125	-0.04318669891357422	-0.032048301696777345	0.9789910278320313	-0.027068899154663085	-0.03210319900512695	0.9690750122070313	-0.02499799919128418	-0.038187999725341794	0.9482030029296875	-0.062032501220703126	-0.04004650115966797	0.9551270141601562	-0.036820098876953124	-0.017963399887084962	0.9807329711914062	-0.02582859992980957	-0.016096700668334962	0.9690029907226563	-0.02319809913635254	-0.019248199462890626	0.9436530151367187	-0.0635973014831543	-0.01959760093688965	0.9489390258789062	-0.04115230178833008	-0.002632620096206665	0.9826389770507813	-0.026644800186157228	0.000270346999168396	0.9695880126953125	-0.023197500228881836	0.0005154849886894221	0.9460390014648438	-0.060328498840332034	0.000127729997038841	0.94981298828125	-0.04168450164794922	0.01084850025177002	0.9823400268554687	-0.027896400451660155	0.013909600257873534	0.9710599975585937	-0.02848390007019043	0.016484800338745116	0.954447021484375	-0.05684870147705078	0.018513999938964843	0.953781005859375	-0.06709809875488282	0.008448670387268067	1.02125
14	0.4666666666666667	-0.04042739868164062	-0.10361100006103516	0.9919249877929688	-0.03847420120239258	-0.07663990020751953	0.9900490112304687	-0.042034900665283204	-0.05003760147094727	0.99664501953125	-0.04501219940185547	-0.017499799728393554	1.0045399780273438	-0.04319020080566406	-0.03235419845581055	0.9790360107421875	-0.02684390068054199	-0.03231510162353515	0.9689520263671875	-0.02477280044555664	-0.038447700500488284	0.9481329956054687	-0.061801700592041015	-0.040281898498535154	0.9551300048828125	-0.0366614990234375	-0.018239700317382812	0.9803839721679688	-0.025688800811767578	-0.01633419990539551	0.968760986328125	-0.022989099502563476	-0.019477100372314454	0.9435150146484375	-0.06333340072631836	-0.019855300903320314	0.9488930053710938	-0.040962200164794925	-0.0028416800498962404	0.982552001953125	-0.02644350051879883	5.097980052232701e-05	0.9694840087890625	-0.022952600479125975	0.000263437002897262	0.9458400268554688	-0.06014030075073242	-0.00013657900691032402	0.9497230224609375	-0.04146760177612305	0.010665800094604492	0.98231298828125	-0.027741100311279295	0.013685500144958496	0.9709879760742187	-0.028220800399780272	0.01623929977416992	0.954322021484375	-0.05658750152587891	0.018270700454711915	0.9536090087890625	-0.06683599853515625	0.008283069610595703	1.0211300048828125
15	0.5	-0.04007260131835937	-0.10372299957275391	0.99172802734375	-0.03811109924316406	-0.07677149963378906	0.9899030151367187	-0.04170019912719727	-0.050222400665283204	0.9965	-0.04474620056152344	-0.017670499801635743	1.0044299926757811	-0.04288639831542969	-0.03251919937133789	0.9789829711914062	-0.026599899291992187	-0.03253870010375977	0.9687990112304687	-0.024502599716186523	-0.03857849884033203	0.9479359741210938	-0.0616427001953125	-0.04045370101928711	0.9552520141601563	-0.036252498626708984	-0.01836400032043457	0.9802529907226563	-0.025335100173950194	-0.01647610092163086	0.9687830200195312	-0.0227775993347168	-0.019668100357055664	0.943291015625	-0.06309099960327148	-0.020032800674438477	0.948822021484375	-0.040716598510742184	-0.00303206992149353	0.9823779907226563	-0.026177499771118166	-0.000108546003699302	0.96947802734375	-0.022680500030517577	0.000129730999469757	0.9458159790039062	-0.05981539916992187	-0.00033039501309394806	0.9496110229492187	-0.041169601440429686	0.01048330020904541	0.9821959838867188	-0.02747100067138672	0.013563500404357911	0.9712589721679687	-0.02794879913330078	0.016080699920654296	0.9542509765625	-0.056343799591064454	0.018090200424194337	0.9535830078125	-0.06663189697265624	0.008063570022583007	1.021010009765625
